<svg width="69" height="85" viewBox="0 0 69 85" fill="none" xmlns="http://www.w3.org/2000/svg">
<path d="M16.2108 53.4268H1.99395C1.20918 53.4268 0.572266 54.0637 0.572266 54.8484V83.1513C0.572266 83.9361 1.20918 84.573 1.99395 84.573H16.2108C16.9956 84.573 17.6325 83.9361 17.6325 83.1513V54.8484C17.6325 54.0637 16.9956 53.4268 16.2108 53.4268ZM14.7891 81.7296H3.41563V56.2701H14.7891V81.7296Z" fill="#D8DBEA"/>
<path d="M41.2313 38.3232H27.0145C26.2297 38.3232 25.5928 38.9602 25.5928 39.7449V83.1518C25.5928 83.9365 26.2297 84.5734 27.0145 84.5734H41.2313C42.0161 84.5734 42.653 83.9365 42.653 83.1518V39.7449C42.653 38.9602 42.0161 38.3232 41.2313 38.3232ZM39.8096 81.7301H28.4361V41.1666H39.8096V81.7301Z" fill="#D8DBEA"/>
<path d="M67.5789 20.125H53.3621C52.5773 20.125 51.9404 20.7619 51.9404 21.5467V83.1511C51.9404 83.9358 52.5773 84.5727 53.3621 84.5727H67.5789C68.3637 84.5727 69.0006 83.9358 69.0006 83.1511V21.5467C69.0006 20.7619 68.3637 20.125 67.5789 20.125ZM66.1573 81.7294H54.7838V22.9684H66.1573V81.7294Z" fill="#D8DBEA"/>
<path d="M31.4855 26.3358L55.2163 7.34207L57.1042 9.95228C57.2862 10.2025 57.7298 10.1627 57.8663 9.87835L62.029 1.4563C62.1654 1.17765 61.9095 0.893312 61.574 0.944493L52.4013 2.45148C52.0942 2.50266 51.9293 2.80974 52.0942 3.03721L54.2097 5.96019L30.9453 24.5786L23.1203 18.3516C22.8133 18.1071 22.3754 18.1014 22.0626 18.3459L0.327909 35.281C-0.0417281 35.571 -0.109974 36.1056 0.180049 36.4752C0.350651 36.6913 0.600863 36.805 0.851079 36.805C1.03305 36.805 1.22071 36.7482 1.37425 36.6231L22.5801 20.1031L30.4107 26.3358C30.7292 26.586 31.1727 26.586 31.4855 26.3358Z" fill="#D8DBEA"/>
</svg>
