<svg width="48" height="67" viewBox="0 0 48 67" fill="none" xmlns="http://www.w3.org/2000/svg">
<path d="M37.1281 13.8779C32.4035 13.8779 28.5229 17.5364 28.147 22.1721H14.1471C13.7808 20.6067 12.3852 19.4376 10.71 19.4376C8.75576 19.4376 7.17188 21.0237 7.17188 22.9806C7.17188 24.9376 8.75576 26.5236 10.71 26.5236C12.4369 26.5236 13.8706 25.2829 14.1813 23.6435H28.147C28.147 23.6451 28.1478 23.6459 28.1478 23.6467H29.4535C29.4304 23.4032 29.4161 23.1565 29.4161 22.9074C29.4161 18.6497 32.8756 15.1863 37.1281 15.1863C41.3807 15.1863 44.8385 18.6505 44.8385 22.9074C44.8385 23.1573 44.8242 23.4032 44.8012 23.6467H46.1077C46.1275 23.4024 46.145 23.1565 46.145 22.9074C46.145 17.9287 42.0999 13.8779 37.1281 13.8779Z" fill="#182A7C"/>
<path d="M38.9496 19.7535C37.2624 18.7666 35.0952 19.3372 34.1105 21.0268C33.2395 22.5206 33.5868 24.386 34.8441 25.481L27.802 37.5585C27.8012 37.5577 27.7996 37.5577 27.7988 37.5569L27.14 38.6862C27.3617 38.7889 27.5819 38.9011 27.7965 39.0268C31.4681 41.1732 32.7102 45.9123 30.5669 49.5891C28.4227 53.2658 23.6917 54.5105 20.0201 52.3641C19.8047 52.2384 19.5997 52.1015 19.401 51.959L18.7422 53.0891C18.9433 53.23 19.1459 53.3685 19.3613 53.4942C23.6552 56.005 29.188 54.5487 31.6946 50.2496C34.0771 46.1638 32.8787 40.9639 29.0704 38.301L36.1299 26.1941C37.6645 26.6668 39.3764 26.0493 40.2211 24.6008C41.2058 22.9097 40.6368 20.7403 38.9496 19.7535Z" fill="#182A7C"/>
<path d="M20.9345 47.11C21.9493 48.7821 24.1253 49.3145 25.795 48.2982C27.4647 47.2819 27.9964 45.1029 26.9815 43.4309C26.0851 41.9531 24.2819 41.3705 22.7218 41.9554L15.4708 30.0029C15.4716 30.0021 15.4724 30.0013 15.474 30.0005L14.7961 28.8824C14.6006 29.0288 14.3971 29.1689 14.1841 29.2986C10.5507 31.5094 5.79821 30.3467 3.59048 26.7082C1.38274 23.0696 2.54224 18.3106 6.17491 16.0998C6.3879 15.9701 6.60565 15.8547 6.82579 15.748L6.1471 14.6299C5.92775 14.7397 5.70921 14.8519 5.49622 14.9816C1.24764 17.5673 -0.108951 23.1325 2.4731 27.387C4.92641 31.4306 10.0635 32.852 14.2151 30.7669L21.4844 42.7489C20.3384 43.875 20.0651 45.6759 20.9345 47.11Z" fill="#182A7C"/>
</svg>
