<svg width="71" height="85" viewBox="0 0 71 85" fill="none" xmlns="http://www.w3.org/2000/svg">
<path fill-rule="evenodd" clip-rule="evenodd" d="M54.5925 37.1448C56.9006 32.5391 58.2157 28.5964 58.2157 25.7961C58.2157 13.4566 48.2126 3.45355 35.8731 3.45355C23.5337 3.45355 13.5306 13.4566 13.5306 25.7961C13.5306 28.5964 14.8457 32.5391 17.1538 37.1448C19.4172 41.6614 22.4623 46.4836 25.5481 50.937C28.6275 55.381 31.7122 59.4072 34.0297 62.3251C34.72 63.1943 35.3413 63.9639 35.8731 64.6158C36.4049 63.9639 37.0263 63.1943 37.7166 62.3251C40.0341 59.4072 43.1188 55.381 46.1981 50.937C49.284 46.4836 52.3291 41.6614 54.5925 37.1448ZM48.9035 51.6433C54.9595 42.8034 60.8442 32.491 60.8442 25.7961C60.8442 12.0049 49.6643 0.825012 35.8731 0.825012C22.082 0.825012 10.9021 12.0049 10.9021 25.7961C10.9021 32.491 16.7868 42.8034 22.8427 51.6433H16.6664L0 84.5H70.7611L55.9995 51.6433H48.9035ZM47.069 54.2719C43.2696 59.6197 39.6311 64.1793 37.5814 66.679C36.5104 67.9851 35.8731 68.7288 35.8731 68.7288C35.8731 68.7288 35.2359 67.9851 34.1649 66.679C32.1151 64.1793 28.4767 59.6197 24.6773 54.2719H18.2805L4.28067 81.8715H66.6986L54.2988 54.2719H47.069ZM36.3112 39.3768C44.0536 39.3768 50.3301 33.1004 50.3301 25.358C50.3301 17.6156 44.0536 11.3391 36.3112 11.3391C28.5688 11.3391 22.2924 17.6156 22.2924 25.358C22.2924 33.1004 28.5688 39.3768 36.3112 39.3768ZM36.3112 42.0054C45.5053 42.0054 52.9586 34.5521 52.9586 25.358C52.9586 16.1639 45.5053 8.71061 36.3112 8.71061C27.1171 8.71061 19.6638 16.1639 19.6638 25.358C19.6638 34.5521 27.1171 42.0054 36.3112 42.0054Z" fill="#E2E6F4"/>
</svg>
