<svg width="19" height="19" viewBox="0 0 19 19" fill="none" xmlns="http://www.w3.org/2000/svg">
<path d="M17.7255 4.96382C16.876 3.50829 15.7237 2.35594 14.2683 1.50651C12.8127 0.657047 11.2236 0.232422 9.49985 0.232422C7.77635 0.232422 6.18672 0.657177 4.7314 1.50651C3.27587 2.35589 2.1236 3.50829 1.27409 4.96382C0.424712 6.41932 0 8.00873 0 9.73201C0 11.8021 0.603946 13.6635 1.81214 15.3168C3.02021 16.9703 4.58085 18.1144 6.49394 18.7493C6.71663 18.7906 6.88148 18.7616 6.98866 18.6628C7.09589 18.564 7.14944 18.4401 7.14944 18.2919C7.14944 18.2671 7.14732 18.0446 7.1432 17.6239C7.13896 17.2033 7.13696 16.8363 7.13696 16.5232L6.85245 16.5725C6.67105 16.6057 6.44221 16.6198 6.16593 16.6158C5.88977 16.6119 5.6031 16.583 5.30628 16.5292C5.00933 16.4758 4.73314 16.3522 4.47748 16.1584C4.22195 15.9646 4.04055 15.7109 3.93332 15.3978L3.80963 15.1131C3.72718 14.9236 3.59738 14.7131 3.42005 14.4823C3.24272 14.2514 3.0634 14.0948 2.882 14.0124L2.7954 13.9504C2.73769 13.9092 2.68414 13.8595 2.63462 13.8018C2.58514 13.7441 2.5481 13.6864 2.52336 13.6286C2.49858 13.5708 2.51911 13.5234 2.58518 13.4861C2.65125 13.4489 2.77066 13.4309 2.94391 13.4309L3.19121 13.4678C3.35615 13.5009 3.56016 13.5996 3.80352 13.7646C4.04674 13.9295 4.24669 14.1439 4.40339 14.4077C4.59315 14.7458 4.82178 15.0035 5.08991 15.1809C5.35783 15.3582 5.62796 15.4467 5.90004 15.4467C6.17212 15.4467 6.40711 15.4261 6.60511 15.3851C6.80289 15.3438 6.98845 15.2818 7.1617 15.1994C7.23592 14.6467 7.43798 14.2221 7.76773 13.9252C7.29774 13.8758 6.8752 13.8015 6.49987 13.7025C6.12477 13.6035 5.73714 13.4428 5.33726 13.2199C4.93715 12.9973 4.60524 12.721 4.34144 12.3913C4.07759 12.0614 3.86105 11.6283 3.69213 11.0924C3.52312 10.5563 3.43859 9.93793 3.43859 9.23703C3.43859 8.23904 3.7644 7.38979 4.41587 6.6888C4.11069 5.9385 4.1395 5.09739 4.50239 4.16557C4.74154 4.09127 5.0962 4.14702 5.56618 4.3325C6.03626 4.51806 6.38043 4.67702 6.59904 4.80881C6.81766 4.94056 6.99282 5.05221 7.12479 5.14276C7.89185 4.92843 8.68344 4.82124 9.49976 4.82124C10.3161 4.82124 11.1078 4.92843 11.875 5.14276L12.345 4.84602C12.6664 4.64803 13.046 4.46659 13.4828 4.30165C13.9198 4.1368 14.254 4.0914 14.485 4.1657C14.856 5.09757 14.889 5.93863 14.5838 6.68893C15.2352 7.38992 15.5611 8.23939 15.5611 9.23715C15.5611 9.93806 15.4763 10.5584 15.3076 11.0986C15.1386 11.6389 14.9202 12.0716 14.6523 12.3975C14.3841 12.7233 14.05 12.9975 13.6501 13.22C13.2502 13.4427 12.8624 13.6035 12.4873 13.7025C12.112 13.8015 11.6895 13.876 11.2195 13.9255C11.6481 14.2964 11.8625 14.8819 11.8625 15.6818V18.2915C11.8625 18.4398 11.9141 18.5636 12.0173 18.6625C12.1203 18.7612 12.2831 18.7903 12.5058 18.7489C14.4192 18.1141 15.9798 16.9699 17.1878 15.3165C18.3957 13.6632 18.9999 11.8017 18.9999 9.73166C18.9994 8.0086 18.5745 6.41932 17.7255 4.96382Z" fill="white"/>
</svg>
