<svg width="47" height="67" viewBox="0 0 47 67" fill="none" xmlns="http://www.w3.org/2000/svg">
<path d="M36.8859 13.8777C32.1921 13.8777 28.3368 17.5361 27.9633 22.1718H14.0547C13.6907 20.6064 12.3043 19.4373 10.6399 19.4373C8.69841 19.4373 7.12485 21.0234 7.12485 22.9804C7.12485 24.9373 8.69841 26.5234 10.6399 26.5234C12.3556 26.5234 13.7799 25.2827 14.0886 23.6433H27.9633C27.9633 23.6449 27.9641 23.6457 27.9641 23.6465H29.2613C29.2384 23.403 29.2242 23.1562 29.2242 22.9072C29.2242 18.6495 32.6611 15.186 36.8859 15.186C41.1108 15.186 44.5461 18.6503 44.5461 22.9072C44.5461 23.157 44.5319 23.403 44.509 23.6465H45.807C45.8267 23.4022 45.8441 23.1562 45.8441 22.9072C45.8441 17.9285 41.8253 13.8777 36.8859 13.8777Z" fill="white"/>
<path d="M38.6956 19.7533C37.0194 18.7664 34.8663 19.3371 33.888 21.0266C33.0227 22.5204 33.3677 24.3858 34.6168 25.4809L27.6206 37.5583C27.6198 37.5575 27.6183 37.5575 27.6175 37.5568L26.9629 38.686C27.1832 38.7887 27.4019 38.9009 27.6151 39.0266C31.2628 41.173 32.4969 45.9122 30.3674 49.5889C28.2373 53.2656 23.5371 54.5103 19.8894 52.3639C19.6754 52.2382 19.4717 52.1013 19.2743 51.9589L18.6198 53.0889C18.8196 53.2298 19.0209 53.3683 19.2349 53.494C23.5008 56.0048 28.9976 54.5485 31.4878 50.2494C33.8549 46.1636 32.6642 40.9637 28.8807 38.3008L35.8943 26.1939C37.4189 26.6666 39.1196 26.0491 39.9588 24.6007C40.9371 22.9095 40.3718 20.7401 38.6956 19.7533Z" fill="white"/>
<path d="M20.7974 47.1099C21.8056 48.7819 23.9674 49.3144 25.6262 48.2981C27.2851 47.2818 27.8133 45.1028 26.805 43.4308C25.9144 41.9529 24.1229 41.3704 22.5731 41.9553L15.3693 30.0028C15.3701 30.002 15.3708 30.0012 15.3724 30.0004L14.6989 28.8823C14.5047 29.0287 14.3026 29.1687 14.091 29.2985C10.4812 31.5093 5.75972 30.3466 3.56637 26.708C1.37302 23.0695 2.52496 18.3105 6.13397 16.0997C6.34557 15.9699 6.5619 15.8545 6.78061 15.7479L6.10633 14.6298C5.88842 14.7396 5.6713 14.8518 5.4597 14.9815C1.23879 17.5672 -0.108959 23.1324 2.45627 27.3869C4.89359 31.4305 9.99721 32.8518 14.1218 30.7668L21.3438 42.7488C20.2052 43.8749 19.9336 45.6758 20.7974 47.1099Z" fill="white"/>
</svg>
