<svg width="30" height="31" viewBox="0 0 30 31" fill="none" xmlns="http://www.w3.org/2000/svg">
<g opacity="0.8">
<path d="M29 16.5C29 24.5081 22.5081 31 14.5 31C6.49187 31 0 24.5081 0 16.5C0 8.49187 6.49187 2 14.5 2C22.5081 2 29 8.49187 29 16.5Z" fill="#2E6196"/>
<path d="M13.0166 20.0645C13.0166 19.0609 13.1299 18.2616 13.3563 17.6667C13.5827 17.0717 13.9956 16.4875 14.5949 15.914C15.2009 15.3333 15.6038 14.8638 15.8036 14.5054C16.0033 14.1398 16.1032 13.7563 16.1032 13.3548C16.1032 12.1434 15.5838 11.5376 14.545 11.5376C14.0522 11.5376 13.6559 11.7025 13.3563 12.0323C13.0633 12.3548 12.9101 12.8029 12.8968 13.3763H10C10.0133 12.0072 10.4229 10.9355 11.2286 10.1613C12.0411 9.3871 13.1465 9 14.545 9C15.9567 9 17.0522 9.36918 17.8313 10.1075C18.6104 10.8387 19 11.8746 19 13.2151C19 13.8244 18.8735 14.4014 18.6204 14.9462C18.3674 15.4839 17.9245 16.0824 17.2919 16.7419L16.4828 17.5699C15.9767 18.0932 15.687 18.7061 15.6138 19.4086L15.5738 20.0645H13.0166ZM12.727 23.3656C12.727 22.8853 12.8768 22.491 13.1765 22.1828C13.4828 21.8674 13.8724 21.7097 14.3452 21.7097C14.818 21.7097 15.2042 21.8674 15.5039 22.1828C15.8102 22.491 15.9634 22.8853 15.9634 23.3656C15.9634 23.8387 15.8135 24.2294 15.5139 24.5376C15.2209 24.8459 14.8313 25 14.3452 25C13.859 25 13.4661 24.8459 13.1665 24.5376C12.8735 24.2294 12.727 23.8387 12.727 23.3656Z" fill="white"/>
<path d="M30 5C30 7.76142 27.7614 10 25 10C22.2386 10 20 7.76142 20 5C20 2.23858 22.2386 0 25 0C27.7614 0 30 2.23858 30 5Z" fill="#AFF223"/>
</g>
</svg>
