<svg width="89" height="85" viewBox="0 0 89 85" fill="none" xmlns="http://www.w3.org/2000/svg">
<path fill-rule="evenodd" clip-rule="evenodd" d="M71.3295 0.351807C72.8408 0.351807 74.0659 1.57694 74.0659 3.08823V13.9427C74.0659 15.454 72.8408 16.6791 71.3295 16.6791H62.2081V26.0183L88.0325 42.6417C88.427 42.8956 88.6639 43.334 88.6602 43.8031C88.6564 44.2722 88.4126 44.7067 88.0141 44.9543L62.1169 61.0466V68.58H71.3295C72.8408 68.58 74.0659 69.8052 74.0659 71.3164V82.1709C74.0659 83.6822 72.8408 84.9074 71.3295 84.9074H50.5327C49.0214 84.9074 47.7962 83.6822 47.7962 82.1709V71.3164C47.7962 69.8052 49.0214 68.58 50.5327 68.58H59.3804V60.9983L34.8888 44.4083H26.2697V48.7865C26.2697 50.2978 25.0446 51.523 23.5333 51.523H14.9591V68.58H24.0805C25.5918 68.58 26.817 69.8052 26.817 71.3164V82.1709C26.817 83.6822 25.5918 84.9074 24.0805 84.9074H3.28371C1.77242 84.9074 0.547279 83.6822 0.547279 82.1709V71.3164C0.547279 69.8052 1.77242 68.58 3.28371 68.58H12.2227V51.523H2.73642C1.22513 51.523 0 50.2978 0 48.7865V37.9321C0 36.4208 1.22513 35.1956 2.73642 35.1956H23.5333C25.0446 35.1956 26.2697 36.4208 26.2697 37.9321V41.6718H34.7039L59.4717 25.9102V16.6791H50.5327C49.0214 16.6791 47.7962 15.454 47.7962 13.9427V3.08823C47.7962 1.57694 49.0214 0.351807 50.5327 0.351807H71.3295ZM71.3295 13.9427V3.08823H50.5327V13.9427H71.3295ZM23.5333 48.7865V37.9321H2.73642V48.7865H23.5333ZM24.0805 71.3164V82.1709H3.28371V71.3164H24.0805ZM71.3295 82.1709V71.3164H50.5327V82.1709H71.3295ZM60.7548 28.3372L84.7325 43.7718L60.7911 58.6487L37.701 43.008L60.7548 28.3372ZM53.9038 42.6752C53.9038 42.9853 53.9308 43.2772 53.9668 43.5691L52.0673 45.0741C51.8963 45.2109 51.8513 45.4572 51.9593 45.6579L53.7598 48.8139C53.8408 48.9598 53.9938 49.0419 54.1468 49.0419C54.2009 49.0419 54.2549 49.0328 54.3089 49.0146L56.5504 48.1024C57.0186 48.4582 57.5227 48.7683 58.0718 48.9963L58.4139 51.4135C58.4409 51.6324 58.6299 51.7966 58.855 51.7966H62.4559C62.681 51.7966 62.87 51.6324 62.897 51.4135L63.2391 48.9963C63.7882 48.7683 64.2923 48.4673 64.7605 48.1024L67.002 49.0146C67.047 49.0328 67.101 49.0419 67.155 49.0419C67.3171 49.0419 67.4701 48.9598 67.5511 48.8139L69.3516 45.6579C69.4596 45.4572 69.4146 45.2109 69.2436 45.0741L67.3441 43.5691C67.3801 43.2772 67.4071 42.9762 67.4071 42.6752C67.4071 42.3742 67.3801 42.0732 67.3441 41.7813L69.2436 40.2763C69.4146 40.1394 69.4686 39.8932 69.3516 39.6925L67.5511 36.5365C67.4701 36.3905 67.3171 36.3084 67.1641 36.3084C67.11 36.3084 67.056 36.3176 67.002 36.3358L64.7605 37.2479C64.2923 36.8922 63.7882 36.5821 63.2391 36.354L62.897 33.9369C62.87 33.718 62.681 33.5538 62.4559 33.5538H58.855C58.6299 33.5538 58.4409 33.718 58.4139 33.9369L58.0718 36.354C57.5227 36.5821 57.0186 36.8831 56.5504 37.2479L54.3089 36.3358C54.2639 36.3176 54.2099 36.3084 54.1559 36.3084C53.9938 36.3084 53.8408 36.3905 53.7598 36.5365L51.9593 39.6925C51.8513 39.8932 51.8963 40.1394 52.0673 40.2763L53.9668 41.7813C53.9308 42.0732 53.9038 42.3651 53.9038 42.6752ZM55.7042 42.6752C55.7042 42.4836 55.7132 42.2921 55.7492 42.0093L55.8753 40.9786L55.0741 40.3401L54.1108 39.5648L54.741 38.4611L55.8843 38.9263L56.8385 39.3185L57.6577 38.68C58.0178 38.4064 58.3779 38.1966 58.765 38.0324L59.7192 37.6402L59.8633 36.6094L60.0343 35.3781H61.2856L61.4656 36.6094L61.6097 37.6402L62.5639 38.0324C62.933 38.1875 63.3021 38.4064 63.6892 38.6983L64.4994 39.3185L65.4356 38.9354L66.5789 38.4702L67.2091 39.5739L66.2368 40.3401L65.4356 40.9786L65.5617 42.0093C65.5887 42.283 65.6067 42.4928 65.6067 42.6752C65.6067 42.8576 65.5887 43.0674 65.5617 43.3502L65.4356 44.3809L66.2368 45.0194L67.2091 45.7856L66.5789 46.8893L65.4356 46.4241L64.4814 46.0319L63.6622 46.6704C63.3021 46.944 62.942 47.1538 62.5549 47.318L61.6007 47.7102L61.4566 48.7409L61.2856 49.9723H60.0253L59.8452 48.7409L59.7012 47.7102L58.747 47.318C58.3779 47.1629 58.0088 46.944 57.6217 46.6521L56.8115 46.0319L55.8753 46.415L54.732 46.8802L54.1018 45.7765L55.0741 45.0103L55.8753 44.3718L55.7492 43.3411C55.7222 43.0674 55.7042 42.8667 55.7042 42.6752ZM64.2563 42.6752C64.2563 40.6593 62.6449 39.0266 60.6554 39.0266C58.666 39.0266 57.0546 40.6593 57.0546 42.6752C57.0546 44.691 58.666 46.3238 60.6554 46.3238C62.6449 46.3238 64.2563 44.691 64.2563 42.6752ZM62.4559 42.6752C62.4559 43.6785 61.6457 44.4995 60.6554 44.4995C59.6652 44.4995 58.855 43.6785 58.855 42.6752C58.855 41.6718 59.6652 40.8509 60.6554 40.8509C61.6457 40.8509 62.4559 41.6718 62.4559 42.6752Z" fill="#E2E6F4"/>
</svg>
