<svg width="199" height="71" viewBox="0 0 199 71" fill="none" xmlns="http://www.w3.org/2000/svg">
<g filter="url(#filter0_d)">
<path d="M42.3035 14.7062C37.3294 14.7062 33.2439 18.583 32.8482 23.4955H18.1092C17.7235 21.8366 16.2543 20.5978 14.4905 20.5978C12.4331 20.5978 10.7656 22.2785 10.7656 24.3523C10.7656 26.4261 12.4331 28.1069 14.4905 28.1069C16.3086 28.1069 17.818 26.7921 18.1452 25.0548H32.8482C32.8482 25.0565 32.849 25.0573 32.849 25.0582H34.2237C34.1994 24.8001 34.1843 24.5387 34.1843 24.2747C34.1843 19.7628 37.8264 16.0926 42.3035 16.0926C46.7806 16.0926 50.421 19.7637 50.421 24.2747C50.421 24.5395 50.4059 24.8001 50.3816 25.0582H51.7572C51.7781 24.7993 51.7965 24.5387 51.7965 24.2747C51.7965 18.9988 47.5378 14.7062 42.3035 14.7062Z" fill="white"/>
<path d="M44.2211 20.9326C42.4448 19.8868 40.1632 20.4915 39.1265 22.2819C38.2095 23.8649 38.5752 25.8416 39.8988 27.0021L32.4849 39.8006C32.4841 39.7998 32.4824 39.7998 32.4816 39.7989L31.788 40.9956C32.0214 41.1044 32.2532 41.2233 32.4791 41.3566C36.3446 43.6311 37.6523 48.6532 35.3958 52.5494C33.1384 56.4456 28.1576 57.7646 24.2922 55.4901C24.0654 55.3569 23.8496 55.2118 23.6404 55.0609L22.9468 56.2584C23.1585 56.4077 23.3718 56.5544 23.5986 56.6877C28.1191 59.3484 33.9441 57.8051 36.583 53.2494C39.0914 48.9197 37.8297 43.4093 33.8203 40.5874L41.2525 27.7577C42.8682 28.2587 44.6704 27.6042 45.5598 26.0693C46.5964 24.2772 45.9974 21.9783 44.2211 20.9326Z" fill="white"/>
<path d="M25.2544 49.9224C26.3229 51.6942 28.6137 52.2584 30.3716 51.1815C32.1295 50.1045 32.6892 47.7955 31.6208 46.0236C30.677 44.4575 28.7785 43.8402 27.1361 44.4601L19.5023 31.7939C19.5031 31.7931 19.5039 31.7922 19.5056 31.7914L18.7919 30.6065C18.5861 30.7617 18.3719 30.9101 18.1477 31.0476C14.3224 33.3904 9.31901 32.1582 6.99471 28.3025C4.67041 24.4467 5.89113 19.4036 9.7156 17.0608C9.93983 16.9233 10.1691 16.801 10.4008 16.688L9.68631 15.5031C9.45539 15.6195 9.2253 15.7384 9.00107 15.8759C4.52817 18.6159 3.09996 24.5134 5.81834 29.0219C8.40117 33.3069 13.8095 34.8131 18.1803 32.6035L25.8334 45.3009C24.6269 46.4942 24.3391 48.4027 25.2544 49.9224Z" fill="white"/>
</g>
<g filter="url(#filter1_d)">
<path d="M82.2776 37.9416L78.0049 27.334C77.8565 26.9878 77.7131 26.5724 77.5747 26.0878C77.5153 26.3251 77.451 26.5526 77.3818 26.7702C77.3126 26.9779 77.2384 27.1708 77.1592 27.3488L72.8865 37.9416H82.2776ZM86.9212 45.5672H85.7492C85.6107 45.5672 85.497 45.5326 85.408 45.4633C85.3189 45.3842 85.2497 45.2853 85.2003 45.1666L82.7375 39.0691H72.4266L69.9639 45.1666C69.9243 45.2754 69.8551 45.3694 69.7562 45.4485C69.6573 45.5276 69.5386 45.5672 69.4001 45.5672H68.2429L76.8329 24.5745H78.3313L86.9212 45.5672Z" fill="white"/>
<path d="M91.0416 42.3478C91.3285 42.7731 91.6252 43.1341 91.9318 43.4308C92.2483 43.7177 92.5796 43.955 92.9258 44.143C93.272 44.321 93.6379 44.4496 94.0236 44.5287C94.4193 44.6078 94.8347 44.6474 95.2698 44.6474C96.1402 44.6474 96.9018 44.4891 97.5546 44.1726C98.2073 43.8561 98.7513 43.4111 99.1865 42.8374C99.6316 42.2539 99.9629 41.5615 100.18 40.7604C100.408 39.9494 100.522 39.0592 100.522 38.0899C100.522 35.8942 100.116 34.2821 99.3052 33.2535C98.4942 32.215 97.332 31.6957 95.8188 31.6957C94.8396 31.6957 93.9544 31.9479 93.1632 32.4523C92.3719 32.9567 91.6647 33.659 91.0416 34.559V42.3478ZM90.9823 33.4612C91.6351 32.571 92.3966 31.8638 93.267 31.3396C94.1473 30.8154 95.1314 30.5533 96.2193 30.5533C98.0293 30.5533 99.4387 31.1814 100.448 32.4375C101.466 33.6936 101.976 35.5777 101.976 38.0899C101.976 39.168 101.832 40.1768 101.545 41.1165C101.268 42.0462 100.853 42.8572 100.299 43.5495C99.7552 44.232 99.0826 44.771 98.2815 45.1666C97.4903 45.5623 96.5754 45.7601 95.5369 45.7601C94.5379 45.7601 93.6725 45.5771 92.9406 45.2111C92.2087 44.8452 91.5757 44.3062 91.0416 43.594V50.7894H89.6174V30.8056H90.4037C90.651 30.8056 90.7944 30.9292 90.8339 31.1765L90.9823 33.4612Z" fill="white"/>
<path d="M107.413 42.3478C107.7 42.7731 107.997 43.1341 108.303 43.4308C108.62 43.7177 108.951 43.955 109.297 44.143C109.644 44.321 110.009 44.4496 110.395 44.5287C110.791 44.6078 111.206 44.6474 111.641 44.6474C112.512 44.6474 113.273 44.4891 113.926 44.1726C114.579 43.8561 115.123 43.4111 115.558 42.8374C116.003 42.2539 116.334 41.5615 116.552 40.7604C116.78 39.9494 116.893 39.0592 116.893 38.0899C116.893 35.8942 116.488 34.2821 115.677 33.2535C114.866 32.215 113.704 31.6957 112.19 31.6957C111.211 31.6957 110.326 31.9479 109.535 32.4523C108.743 32.9567 108.036 33.659 107.413 34.559V42.3478ZM107.354 33.4612C108.007 32.571 108.768 31.8638 109.639 31.3396C110.519 30.8154 111.503 30.5533 112.591 30.5533C114.401 30.5533 115.81 31.1814 116.819 32.4375C117.838 33.6936 118.347 35.5777 118.347 38.0899C118.347 39.168 118.204 40.1768 117.917 41.1165C117.64 42.0462 117.225 42.8572 116.671 43.5495C116.127 44.232 115.454 44.771 114.653 45.1666C113.862 45.5623 112.947 45.7601 111.908 45.7601C110.91 45.7601 110.044 45.5771 109.312 45.2111C108.58 44.8452 107.947 44.3062 107.413 43.594V50.7894H105.989V30.8056H106.775C107.023 30.8056 107.166 30.9292 107.205 31.1765L107.354 33.4612Z" fill="white"/>
<path d="M123.785 33.298C124.467 32.4672 125.244 31.8045 126.114 31.31C126.994 30.8154 127.978 30.5682 129.066 30.5682C129.877 30.5682 130.589 30.6968 131.203 30.9539C131.826 31.2111 132.34 31.582 132.746 32.0666C133.151 32.5512 133.458 33.1348 133.665 33.8172C133.873 34.4997 133.977 35.2711 133.977 36.1316V45.5672H132.553V36.1316C132.553 34.7469 132.236 33.6639 131.603 32.8826C130.97 32.0913 130.006 31.6957 128.71 31.6957C127.751 31.6957 126.851 31.943 126.01 32.4375C125.179 32.9221 124.438 33.5996 123.785 34.47V45.5672H122.361V23.9811H123.785V33.298Z" fill="white"/>
<path d="M144.519 30.5682C145.578 30.5682 146.522 30.7512 147.353 31.1171C148.194 31.4732 148.901 31.9825 149.475 32.6452C150.048 33.3079 150.483 34.109 150.78 35.0486C151.087 35.9783 151.24 37.0218 151.24 38.179C151.24 39.3362 151.087 40.3796 150.78 41.3093C150.483 42.239 150.048 43.0352 149.475 43.6979C148.901 44.3606 148.194 44.8699 147.353 45.226C146.522 45.582 145.578 45.7601 144.519 45.7601C143.461 45.7601 142.512 45.582 141.671 45.226C140.84 44.8699 140.133 44.3606 139.549 43.6979C138.976 43.0352 138.536 42.239 138.229 41.3093C137.932 40.3796 137.784 39.3362 137.784 38.179C137.784 37.0218 137.932 35.9783 138.229 35.0486C138.536 34.109 138.976 33.3079 139.549 32.6452C140.133 31.9825 140.84 31.4732 141.671 31.1171C142.512 30.7512 143.461 30.5682 144.519 30.5682ZM144.519 44.6474C145.4 44.6474 146.166 44.499 146.819 44.2023C147.482 43.8957 148.031 43.4605 148.466 42.8968C148.911 42.333 149.242 41.6555 149.46 40.8642C149.677 40.0631 149.786 39.168 149.786 38.179C149.786 37.1998 149.677 36.3096 149.46 35.5085C149.242 34.7074 148.911 34.0249 148.466 33.4612C148.031 32.8875 147.482 32.4474 146.819 32.1408C146.166 31.8342 145.4 31.6809 144.519 31.6809C143.639 31.6809 142.868 31.8342 142.205 32.1408C141.552 32.4474 141.003 32.8875 140.558 33.4612C140.123 34.0249 139.792 34.7074 139.564 35.5085C139.347 36.3096 139.238 37.1998 139.238 38.179C139.238 39.168 139.347 40.0631 139.564 40.8642C139.792 41.6555 140.123 42.333 140.558 42.8968C141.003 43.4605 141.552 43.8957 142.205 44.2023C142.868 44.499 143.639 44.6474 144.519 44.6474Z" fill="white"/>
<path d="M161.065 30.5682C162.123 30.5682 163.068 30.7512 163.898 31.1171C164.739 31.4732 165.446 31.9825 166.02 32.6452C166.594 33.3079 167.029 34.109 167.326 35.0486C167.632 35.9783 167.785 37.0218 167.785 38.179C167.785 39.3362 167.632 40.3796 167.326 41.3093C167.029 42.239 166.594 43.0352 166.02 43.6979C165.446 44.3606 164.739 44.8699 163.898 45.226C163.068 45.582 162.123 45.7601 161.065 45.7601C160.007 45.7601 159.057 45.582 158.216 45.226C157.386 44.8699 156.678 44.3606 156.095 43.6979C155.521 43.0352 155.081 42.239 154.774 41.3093C154.478 40.3796 154.329 39.3362 154.329 38.179C154.329 37.0218 154.478 35.9783 154.774 35.0486C155.081 34.109 155.521 33.3079 156.095 32.6452C156.678 31.9825 157.386 31.4732 158.216 31.1171C159.057 30.7512 160.007 30.5682 161.065 30.5682ZM161.065 44.6474C161.945 44.6474 162.712 44.499 163.364 44.2023C164.027 43.8957 164.576 43.4605 165.011 42.8968C165.456 42.333 165.788 41.6555 166.005 40.8642C166.223 40.0631 166.332 39.168 166.332 38.179C166.332 37.1998 166.223 36.3096 166.005 35.5085C165.788 34.7074 165.456 34.0249 165.011 33.4612C164.576 32.8875 164.027 32.4474 163.364 32.1408C162.712 31.8342 161.945 31.6809 161.065 31.6809C160.185 31.6809 159.413 31.8342 158.75 32.1408C158.098 32.4474 157.549 32.8875 157.104 33.4612C156.669 34.0249 156.337 34.7074 156.11 35.5085C155.892 36.3096 155.783 37.1998 155.783 38.179C155.783 39.168 155.892 40.0631 156.11 40.8642C156.337 41.6555 156.669 42.333 157.104 42.8968C157.549 43.4605 158.098 43.8957 158.75 44.2023C159.413 44.499 160.185 44.6474 161.065 44.6474Z" fill="white"/>
<path d="M173.189 23.9811V37.1405H173.872C174.01 37.1405 174.139 37.1207 174.257 37.0811C174.386 37.0415 174.524 36.9476 174.673 36.7992L180.592 31.1765C180.691 31.0578 180.8 30.9688 180.919 30.9094C181.037 30.8402 181.186 30.8056 181.364 30.8056H182.61L176.097 36.9921C175.919 37.1998 175.726 37.363 175.518 37.4817C175.677 37.5608 175.81 37.6548 175.919 37.7636C176.038 37.8625 176.151 37.9811 176.26 38.1196L183.1 45.5672H181.868C181.73 45.5672 181.601 45.5474 181.482 45.5079C181.374 45.4584 181.27 45.3644 181.171 45.226L174.969 38.5795C174.89 38.4905 174.811 38.4163 174.732 38.357C174.663 38.2976 174.589 38.2531 174.51 38.2235C174.43 38.1839 174.337 38.1592 174.228 38.1493C174.129 38.1295 174.005 38.1196 173.857 38.1196H173.189V45.5672H171.765V23.9811H173.189Z" fill="white"/>
<path d="M193.992 32.6304C193.912 32.7688 193.799 32.8381 193.65 32.8381C193.542 32.8381 193.403 32.7787 193.235 32.66C193.067 32.5315 192.839 32.393 192.552 32.2446C192.276 32.0864 191.929 31.9479 191.514 31.8292C191.099 31.7007 190.594 31.6364 190.001 31.6364C189.467 31.6364 188.977 31.7155 188.532 31.8737C188.097 32.0221 187.721 32.2248 187.404 32.482C187.098 32.7392 186.86 33.0408 186.692 33.387C186.524 33.7233 186.44 34.0793 186.44 34.4552C186.44 34.92 186.559 35.3058 186.796 35.6124C187.034 35.919 187.34 36.1811 187.716 36.3987C188.102 36.6163 188.542 36.8042 189.036 36.9624C189.531 37.1207 190.03 37.2789 190.535 37.4372C191.049 37.5954 191.554 37.7734 192.048 37.9713C192.543 38.1592 192.978 38.3966 193.354 38.6834C193.739 38.9702 194.051 39.3213 194.288 39.7367C194.526 40.1521 194.644 40.6565 194.644 41.25C194.644 41.8929 194.531 42.4912 194.303 43.0451C194.076 43.599 193.739 44.0787 193.294 44.4842C192.859 44.8897 192.32 45.2111 191.677 45.4485C191.034 45.6859 190.297 45.8046 189.467 45.8046C188.428 45.8046 187.533 45.6414 186.781 45.315C186.03 44.9787 185.357 44.5435 184.764 44.0094L185.09 43.505C185.14 43.4259 185.194 43.3666 185.253 43.327C185.323 43.2874 185.412 43.2676 185.52 43.2676C185.649 43.2676 185.802 43.3468 185.98 43.505C186.168 43.6633 186.415 43.8364 186.722 44.0243C187.029 44.2023 187.404 44.3704 187.85 44.5287C188.304 44.6869 188.863 44.7661 189.526 44.7661C190.149 44.7661 190.698 44.682 191.173 44.5139C191.648 44.3358 192.043 44.0985 192.36 43.8017C192.676 43.505 192.913 43.1589 193.072 42.7632C193.24 42.3577 193.324 41.9324 193.324 41.4873C193.324 40.9928 193.205 40.5824 192.968 40.256C192.731 39.9296 192.419 39.6526 192.033 39.4252C191.648 39.1977 191.207 39.0048 190.713 38.8466C190.228 38.6883 189.729 38.5301 189.214 38.3718C188.7 38.2136 188.196 38.0405 187.701 37.8526C187.217 37.6647 186.781 37.4273 186.396 37.1405C186.01 36.8536 185.698 36.5075 185.461 36.1019C185.224 35.6865 185.105 35.1722 185.105 34.559C185.105 34.0348 185.219 33.5304 185.446 33.0458C185.674 32.5611 185.995 32.1358 186.41 31.7699C186.836 31.4039 187.35 31.1122 187.953 30.8946C188.557 30.677 189.234 30.5682 189.986 30.5682C190.886 30.5682 191.682 30.6968 192.374 30.9539C193.077 31.2111 193.715 31.6067 194.288 32.1408L193.992 32.6304Z" fill="white"/>
</g>
<defs>
<filter id="filter0_d" x="-0.784668" y="0" width="57.806" height="79" filterUnits="userSpaceOnUse" color-interpolation-filters="sRGB">
<feFlood flood-opacity="0" result="BackgroundImageFix"/>
<feColorMatrix in="SourceAlpha" type="matrix" values="0 0 0 0 0 0 0 0 0 0 0 0 0 0 0 0 0 0 127 0"/>
<feOffset dy="4"/>
<feGaussianBlur stdDeviation="2"/>
<feColorMatrix type="matrix" values="0 0 0 0 0 0 0 0 0 0 0 0 0 0 0 0 0 0 0.25 0"/>
<feBlend mode="normal" in2="BackgroundImageFix" result="effect1_dropShadow"/>
<feBlend mode="normal" in="SourceGraphic" in2="effect1_dropShadow" result="shape"/>
</filter>
<filter id="filter1_d" x="64.2429" y="23.9811" width="134.401" height="34.8083" filterUnits="userSpaceOnUse" color-interpolation-filters="sRGB">
<feFlood flood-opacity="0" result="BackgroundImageFix"/>
<feColorMatrix in="SourceAlpha" type="matrix" values="0 0 0 0 0 0 0 0 0 0 0 0 0 0 0 0 0 0 127 0"/>
<feOffset dy="4"/>
<feGaussianBlur stdDeviation="2"/>
<feColorMatrix type="matrix" values="0 0 0 0 0 0 0 0 0 0 0 0 0 0 0 0 0 0 0.25 0"/>
<feBlend mode="normal" in2="BackgroundImageFix" result="effect1_dropShadow"/>
<feBlend mode="normal" in="SourceGraphic" in2="effect1_dropShadow" result="shape"/>
</filter>
</defs>
</svg>
